<mxfile host="app.diagrams.net" modified="2024-06-22T16:54:46.112Z" agent="Mozilla/5.0 (Windows NT 10.0; Win64; x64) AppleWebKit/537.36 (KHTML, like Gecko) Chrome/126.0.0.0 Safari/537.36 Edg/126.0.0.0" etag="pbXNniJ3xMyJxo0kpBie" version="24.6.2" type="github">
  <diagram name="Trang-1" id="HEfZXSXI9tb1EYUymuIW">
    <mxGraphModel dx="2948" dy="1975" grid="1" gridSize="10" guides="1" tooltips="1" connect="1" arrows="1" fold="1" page="1" pageScale="1" pageWidth="850" pageHeight="1100" math="0" shadow="0">
      <root>
        <mxCell id="0" />
        <mxCell id="1" parent="0" />
        <mxCell id="uTrTwVoFMtSsLoWnPRMv-1" value="&lt;div&gt;&lt;font style=&quot;&quot; face=&quot;Times New Roman&quot;&gt;&lt;font style=&quot;font-size: 24px;&quot;&gt;Phát hiện, truy vết và đếm phương tiện trên ảnh cao tốc&lt;/font&gt;&lt;br&gt;&lt;span style=&quot;font-size: 18px;&quot;&gt;Input: Ảnh từ camera trên cao tốc&lt;/span&gt;&lt;br&gt;&lt;span style=&quot;font-size: 18px;&quot;&gt;Output: Ảnh kết quả với bbox, id, loại phương tiện, số lượng phương tiện&lt;/span&gt;&lt;/font&gt;&lt;/div&gt;" style="rounded=0;whiteSpace=wrap;html=1;" parent="1" vertex="1">
          <mxGeometry x="325" y="-310" width="435" height="120" as="geometry" />
        </mxCell>
        <mxCell id="uTrTwVoFMtSsLoWnPRMv-4" value="&lt;span style=&quot;background-color: initial;&quot;&gt;&lt;font style=&quot;&quot; face=&quot;Times New Roman&quot;&gt;&lt;font style=&quot;font-size: 24px;&quot;&gt;Truy vết phương tiện&lt;/font&gt;&lt;br&gt;&lt;span style=&quot;font-size: 18px;&quot;&gt;Input: Khung video (ảnh) đã xử lý, thông tin khi phát hiện phương tiện&amp;nbsp;&lt;/span&gt;&lt;br&gt;&lt;span style=&quot;font-size: 18px;&quot;&gt;Output: Thông tin ID của phương tiện, tọa độ (Bbox) của từng phương tiện và quỹ đạo di chuyển&lt;/span&gt;&lt;/font&gt;&lt;/span&gt;" style="rounded=0;whiteSpace=wrap;html=1;" parent="1" vertex="1">
          <mxGeometry x="430" y="-140" width="240" height="210" as="geometry" />
        </mxCell>
        <mxCell id="uTrTwVoFMtSsLoWnPRMv-5" value="&lt;div&gt;&lt;font face=&quot;Times New Roman&quot;&gt;&lt;font style=&quot;font-size: 24px;&quot;&gt;Phân lớp phương tiện&lt;/font&gt;&lt;br&gt;&lt;span style=&quot;font-size: 18px;&quot;&gt;Input: Khung video (ảnh)&lt;/span&gt;&lt;br&gt;&lt;span style=&quot;font-size: 18px;&quot;&gt;Output: Thông tin về loại phương tiện&lt;/span&gt;&lt;/font&gt;&lt;/div&gt;" style="rounded=0;whiteSpace=wrap;html=1;" parent="1" vertex="1">
          <mxGeometry x="130" y="-140" width="240" height="160" as="geometry" />
        </mxCell>
        <mxCell id="uTrTwVoFMtSsLoWnPRMv-6" value="&lt;font face=&quot;Times New Roman&quot;&gt;&lt;font style=&quot;font-size: 24px;&quot;&gt;Đếm phương tiện&lt;/font&gt;&lt;br&gt;&lt;span style=&quot;font-size: 18px;&quot;&gt;Input: Khung video (ảnh) chứa thông tin về loại phương tiện&lt;/span&gt;&lt;br&gt;&lt;span style=&quot;font-size: 18px;&quot;&gt;Output: Số lượng các loại phương tiện vào / ra trên đường cao tốc&lt;/span&gt;&lt;/font&gt;" style="rounded=0;whiteSpace=wrap;html=1;" parent="1" vertex="1">
          <mxGeometry x="750" y="-140" width="210" height="200" as="geometry" />
        </mxCell>
        <mxCell id="uTrTwVoFMtSsLoWnPRMv-12" value="" style="endArrow=classic;html=1;rounded=0;entryX=0.5;entryY=0;entryDx=0;entryDy=0;exitX=0.5;exitY=1;exitDx=0;exitDy=0;" parent="1" source="uTrTwVoFMtSsLoWnPRMv-1" target="uTrTwVoFMtSsLoWnPRMv-4" edge="1">
          <mxGeometry width="50" height="50" relative="1" as="geometry">
            <mxPoint x="400" y="310" as="sourcePoint" />
            <mxPoint x="450" y="260" as="targetPoint" />
            <Array as="points" />
          </mxGeometry>
        </mxCell>
        <mxCell id="uTrTwVoFMtSsLoWnPRMv-13" value="" style="endArrow=classic;html=1;rounded=0;exitX=0.5;exitY=1;exitDx=0;exitDy=0;entryX=0.46;entryY=-0.004;entryDx=0;entryDy=0;entryPerimeter=0;" parent="1" source="uTrTwVoFMtSsLoWnPRMv-1" target="uTrTwVoFMtSsLoWnPRMv-5" edge="1">
          <mxGeometry width="50" height="50" relative="1" as="geometry">
            <mxPoint x="320" y="200" as="sourcePoint" />
            <mxPoint x="180" y="200" as="targetPoint" />
            <Array as="points" />
          </mxGeometry>
        </mxCell>
        <mxCell id="uTrTwVoFMtSsLoWnPRMv-14" value="" style="endArrow=classic;html=1;rounded=0;entryX=0.552;entryY=-0.012;entryDx=0;entryDy=0;entryPerimeter=0;exitX=0.5;exitY=1;exitDx=0;exitDy=0;" parent="1" source="uTrTwVoFMtSsLoWnPRMv-1" target="uTrTwVoFMtSsLoWnPRMv-6" edge="1">
          <mxGeometry width="50" height="50" relative="1" as="geometry">
            <mxPoint x="460" y="160" as="sourcePoint" />
            <mxPoint x="160" y="450" as="targetPoint" />
            <Array as="points" />
          </mxGeometry>
        </mxCell>
        <mxCell id="uTrTwVoFMtSsLoWnPRMv-15" value="&lt;font style=&quot;&quot; face=&quot;Times New Roman&quot;&gt;&lt;font style=&quot;font-size: 24px;&quot;&gt;Xử lý ảnh&lt;br&gt;&lt;/font&gt;&lt;span style=&quot;font-size: 18px;&quot;&gt;Input: Khung video (ảnh)&lt;/span&gt;&lt;br&gt;&lt;span style=&quot;font-size: 18px;&quot;&gt;Output: Khung video đã được xử lý&lt;/span&gt;&lt;/font&gt;" style="rounded=0;whiteSpace=wrap;html=1;" parent="1" vertex="1">
          <mxGeometry x="-70" y="90" width="180" height="130" as="geometry" />
        </mxCell>
        <mxCell id="fzqFrIpyXu8ncifQrLtf-7" style="edgeStyle=orthogonalEdgeStyle;rounded=0;orthogonalLoop=1;jettySize=auto;html=1;exitX=0.5;exitY=0;exitDx=0;exitDy=0;" edge="1" parent="1" source="uTrTwVoFMtSsLoWnPRMv-16">
          <mxGeometry relative="1" as="geometry">
            <mxPoint x="240.00000000000045" y="70" as="targetPoint" />
          </mxGeometry>
        </mxCell>
        <mxCell id="uTrTwVoFMtSsLoWnPRMv-16" value="&lt;font style=&quot;&quot; face=&quot;Times New Roman&quot;&gt;&lt;font style=&quot;font-size: 24px;&quot;&gt;Phát hiện phương tiện&lt;br&gt;&lt;/font&gt;&lt;span style=&quot;font-size: 18px;&quot;&gt;Input: Khung video (ảnh) đã được xử lý&lt;/span&gt;&lt;br&gt;&lt;span style=&quot;font-size: 18px;&quot;&gt;Output: Thông tin về bounding box&lt;/span&gt;&lt;/font&gt;" style="rounded=0;whiteSpace=wrap;html=1;" parent="1" vertex="1">
          <mxGeometry x="130" y="90" width="195" height="140" as="geometry" />
        </mxCell>
        <mxCell id="uTrTwVoFMtSsLoWnPRMv-18" value="&lt;font face=&quot;Times New Roman&quot; style=&quot;&quot;&gt;&lt;font style=&quot;font-size: 24px;&quot;&gt;Phân lớp phương tiện&lt;br&gt;&lt;/font&gt;&lt;span style=&quot;font-size: 18px;&quot;&gt;Input: Khung video (ảnh) đã xử lý, thông tin về vị trí phương tiện&lt;/span&gt;&lt;br&gt;&lt;span style=&quot;font-size: 18px;&quot;&gt;Output: Thông tin về loại phương tiện&lt;/span&gt;&lt;/font&gt;" style="rounded=0;whiteSpace=wrap;html=1;" parent="1" vertex="1">
          <mxGeometry x="340" y="90" width="230" height="130" as="geometry" />
        </mxCell>
        <mxCell id="uTrTwVoFMtSsLoWnPRMv-20" value="" style="endArrow=classic;html=1;rounded=0;exitX=0.5;exitY=1;exitDx=0;exitDy=0;entryX=0.5;entryY=0;entryDx=0;entryDy=0;" parent="1" source="uTrTwVoFMtSsLoWnPRMv-5" target="uTrTwVoFMtSsLoWnPRMv-15" edge="1">
          <mxGeometry width="50" height="50" relative="1" as="geometry">
            <mxPoint x="-90" y="460" as="sourcePoint" />
            <mxPoint x="-40" y="410" as="targetPoint" />
          </mxGeometry>
        </mxCell>
        <mxCell id="uTrTwVoFMtSsLoWnPRMv-21" value="" style="endArrow=classic;html=1;rounded=0;exitX=0.5;exitY=1;exitDx=0;exitDy=0;entryX=0.5;entryY=0;entryDx=0;entryDy=0;" parent="1" source="uTrTwVoFMtSsLoWnPRMv-5" target="uTrTwVoFMtSsLoWnPRMv-16" edge="1">
          <mxGeometry width="50" height="50" relative="1" as="geometry">
            <mxPoint x="-90" y="460" as="sourcePoint" />
            <mxPoint x="-40" y="410" as="targetPoint" />
          </mxGeometry>
        </mxCell>
        <mxCell id="uTrTwVoFMtSsLoWnPRMv-23" value="" style="endArrow=classic;html=1;rounded=0;exitX=0.5;exitY=1;exitDx=0;exitDy=0;entryX=0.5;entryY=0;entryDx=0;entryDy=0;" parent="1" source="uTrTwVoFMtSsLoWnPRMv-5" target="uTrTwVoFMtSsLoWnPRMv-18" edge="1">
          <mxGeometry width="50" height="50" relative="1" as="geometry">
            <mxPoint x="-90" y="460" as="sourcePoint" />
            <mxPoint x="-40" y="410" as="targetPoint" />
          </mxGeometry>
        </mxCell>
        <mxCell id="fzqFrIpyXu8ncifQrLtf-1" value="&lt;font style=&quot;&quot; face=&quot;Times New Roman&quot;&gt;&lt;font style=&quot;font-size: 24px;&quot;&gt;Phát hiện, truy vết và đếm phương tiện trên video cao tốc&lt;/font&gt;&lt;br&gt;&lt;span style=&quot;font-size: 18px;&quot;&gt;Input: Video từ camera trên cao tốc&lt;/span&gt;&lt;br&gt;&lt;span style=&quot;font-size: 18px;&quot;&gt;Output: Video kết quả với bbox, id, loại phương tiện, số lượng phương tiện&lt;/span&gt;&lt;/font&gt;" style="rounded=0;whiteSpace=wrap;html=1;" vertex="1" parent="1">
          <mxGeometry x="297.5" y="-625" width="490" height="150" as="geometry" />
        </mxCell>
        <mxCell id="fzqFrIpyXu8ncifQrLtf-2" value="&lt;font style=&quot;font-size: 24px;&quot; face=&quot;Times New Roman&quot;&gt;Xử lý video&lt;/font&gt;&lt;font style=&quot;font-size: 18px;&quot; face=&quot;Times New Roman&quot;&gt;&amp;nbsp;&lt;br&gt;Input: Video từ camera trên cao tốc&lt;br&gt;Output: Ảnh từ camera trên cao tốc&lt;/font&gt;" style="rounded=0;whiteSpace=wrap;html=1;" vertex="1" parent="1">
          <mxGeometry x="297.5" y="-440" width="490" height="100" as="geometry" />
        </mxCell>
        <mxCell id="fzqFrIpyXu8ncifQrLtf-4" value="" style="endArrow=classic;html=1;rounded=0;exitX=0.5;exitY=1;exitDx=0;exitDy=0;entryX=0.5;entryY=0;entryDx=0;entryDy=0;" edge="1" parent="1" source="fzqFrIpyXu8ncifQrLtf-1" target="fzqFrIpyXu8ncifQrLtf-2">
          <mxGeometry width="50" height="50" relative="1" as="geometry">
            <mxPoint x="400" y="-420" as="sourcePoint" />
            <mxPoint x="450" y="-470" as="targetPoint" />
          </mxGeometry>
        </mxCell>
        <mxCell id="fzqFrIpyXu8ncifQrLtf-5" value="" style="endArrow=classic;html=1;rounded=0;exitX=0.5;exitY=1;exitDx=0;exitDy=0;entryX=0.5;entryY=0;entryDx=0;entryDy=0;" edge="1" parent="1" source="fzqFrIpyXu8ncifQrLtf-2" target="uTrTwVoFMtSsLoWnPRMv-1">
          <mxGeometry width="50" height="50" relative="1" as="geometry">
            <mxPoint x="400" y="-220" as="sourcePoint" />
            <mxPoint x="450" y="-270" as="targetPoint" />
          </mxGeometry>
        </mxCell>
      </root>
    </mxGraphModel>
  </diagram>
</mxfile>
